<!--?xml version="1.0" standalone="no"?--><svg version="1.0" xmlns="http://www.w3.org/2000/svg" width="286.000000pt" height="300.000000pt" viewBox="0 0 286.000000 300.000000" preserveAspectRatio="xMidYMid meet">
<metadata>
  <rdf:rdf xmlns:rdf="http://www.w3.org/1999/02/22-rdf-syntax-ns#" xmlns:rdfs="http://www.w3.org/2000/01/rdf-schema#" xmlns:dc="http://purl.org/dc/elements/1.1/">
    <rdf:description dc:title="music note clipart" dc:publisher="Hiox" dc:date="2015-03-14" dc:format="image/svg+xml" dc:language="en">
      <dc:creator>
        <rdf:bag>
          <rdf:li>svgimages.com</rdf:li>
        </rdf:bag>
      </dc:creator>
    </rdf:description>
  </rdf:rdf>
</metadata>
<g transform="translate(0.000000,300.000000) scale(0.100000,-0.100000)" fill="#090909" stroke="none">
<path d="M915 2992 c-41 -9 -65 -33 -65 -67 0 -57 46 -213 131 -449 l83 -229
-23 -41 c-87 -155 -151 -289 -160 -334 -18 -87 -14 -162 12 -212 32 -64 53
-64 60 -1 3 28 17 77 30 110 26 65 135 251 147 251 7 0 40 -110 40 -135 0 -8
-18 -32 -41 -52 -69 -63 -84 -102 -84 -223 0 -91 3 -111 24 -150 25 -48 50
-80 61 -80 4 0 10 33 12 74 3 52 11 84 27 109 21 35 68 73 78 64 9 -9 82 -285
107 -403 17 -83 21 -116 12 -122 -48 -39 -206 -41 -290 -4 l-46 21 -6 -26 c-9
-34 4 -53 56 -82 58 -32 180 -41 258 -18 40 12 54 13 57 4 10 -28 35 -253 35
-315 0 -118 -15 -183 -50 -214 -39 -36 -64 -35 -101 1 -38 38 -37 65 0 81 37
15 61 71 61 141 0 90 -45 139 -129 139 -86 0 -128 -79 -119 -231 5 -99 40
-176 100 -219 40 -29 48 -31 108 -28 50 3 74 10 103 30 56 38 67 59 77 145 9
82 -3 337 -20 432 -15 81 -15 80 53 161 34 41 75 104 92 140 25 56 30 80 33
172 5 121 -14 205 -71 311 -58 111 -141 162 -262 162 l-80 1 -29 87 -29 87 46
93 c60 120 77 182 84 297 9 169 -42 329 -132 408 -78 69 -200 124 -250 114z
m116 -176 c51 -35 86 -92 106 -170 14 -58 15 -81 5 -152 -6 -46 -19 -103 -30
-126 -17 -39 -19 -41 -29 -23 -26 48 -133 426 -133 469 0 34 32 35 81 2z m330
-1191 c58 -21 77 -39 110 -110 36 -75 39 -170 9 -268 -21 -66 -46 -102 -54
-76 -14 52 -116 455 -116 462 0 9 1 9 51 -8z m-146 -865 c7 -23 -10 -50 -31
-50 -19 0 -27 18 -20 46 8 30 42 32 51 4z" id="node1" class="node"></path>
<path d="M1641 2924 c-40 -30 -77 -54 -82 -54 -5 0 -18 18 -29 40 -11 22 -22
40 -25 40 -2 0 -3 -26 -2 -57 l2 -57 -57 -21 c-75 -27 -78 -32 -24 -40 79 -12
82 -18 63 -115 -9 -46 -15 -85 -13 -87 2 -3 21 28 42 67 21 40 43 74 51 77 7
3 37 -9 68 -26 68 -39 83 -39 59 -3 -10 15 -31 48 -46 73 l-29 46 52 82 c29
45 50 83 48 85 -2 2 -37 -20 -78 -50z" id="node2" class="node"></path>
<path d="M2087 2920 c-3 -8 -13 -48 -21 -89 -26 -119 -76 -211 -168 -307 -102
-107 -159 -137 -261 -138 -80 -1 -126 18 -192 75 -20 18 -37 30 -40 28 -2 -2
15 -33 36 -69 98 -160 210 -408 262 -580 75 -246 157 -656 157 -784 l0 -38
-47 50 c-88 92 -183 91 -225 -4 -30 -69 -22 -187 17 -267 35 -71 99 -132 155
-147 47 -13 75 -7 107 23 39 35 48 82 46 228 -4 291 -101 773 -216 1082 -21
54 -37 99 -37 101 0 2 26 5 58 8 73 5 139 38 207 104 59 56 133 164 172 252
l26 57 14 -65 c8 -36 34 -150 59 -254 24 -104 44 -194 44 -199 0 -6 -10 -1
-23 11 -56 53 -172 70 -220 31 -95 -74 -23 -295 119 -365 98 -48 177 -15 204
87 13 47 13 47 -23 174 -74 262 -140 578 -172 815 -20 151 -30 200 -38 180z
m-17 -945 c7 -9 10 -25 6 -41 -5 -20 -12 -25 -34 -22 -19 2 -28 9 -30 26 -6
43 33 68 58 37z m-362 -949 c4 -20 -15 -46 -34 -46 -17 0 -44 28 -44 45 0 7 7
21 16 30 14 14 19 14 38 2 11 -8 22 -22 24 -31z" id="node3" class="node"></path>
<path d="M2352 2418 c-17 -17 -24 -20 -34 -10 -22 22 -27 13 -10 -17 15 -28
15 -31 -1 -49 -23 -25 -21 -33 6 -27 18 5 26 0 37 -22 l14 -28 4 33 c2 19 9
33 18 33 27 3 32 4 38 10 4 4 -5 14 -19 23 -22 14 -25 22 -20 47 8 35 -3 37
-33 7z" id="node4" class="node"></path>
<path d="M606 2415 c-3 -9 -6 -47 -6 -85 0 -208 -99 -740 -191 -1025 -34 -106
-35 -106 -58 -19 -24 89 -101 156 -158 137 -71 -24 -121 -148 -110 -270 21
-219 174 -287 264 -116 36 67 145 380 163 469 7 32 15 63 17 68 3 4 22 -32 42
-81 83 -200 183 -330 293 -381 l60 -27 -7 -55 c-12 -106 -82 -347 -111 -379
-10 -11 -14 -4 -23 38 -20 96 -68 164 -127 179 -45 12 -72 4 -109 -35 -98
-101 -92 -362 12 -454 32 -28 41 -31 82 -26 60 7 91 42 164 190 112 225 168
450 189 755 l11 163 -60 62 c-78 81 -134 166 -194 291 -62 131 -95 261 -114
454 -9 86 -18 158 -19 160 -2 1 -6 -4 -10 -13z m23 -607 c41 -130 106 -252
173 -323 34 -36 81 -78 105 -92 39 -23 43 -28 43 -65 0 -36 -2 -39 -22 -33
-69 21 -168 108 -224 196 -61 97 -127 296 -117 354 3 19 9 35 12 35 4 0 17
-33 30 -72z m-401 -450 c24 -24 4 -88 -28 -88 -16 0 -40 32 -40 54 0 26 17 46
40 46 9 0 21 -5 28 -12z m407 -568 c24 -27 13 -68 -22 -76 -45 -12 -70 41 -36
78 21 23 36 23 58 -2z" id="node5" class="node"></path>
<path d="M734 2408 c31 -118 31 -125 1 -168 -30 -44 -29 -58 4 -40 30 16 38 7
52 -55 7 -30 16 -55 20 -55 4 0 9 28 11 63 3 61 4 62 33 65 59 6 62 11 26 41
l-34 28 12 61 c18 80 11 93 -22 43 -15 -22 -31 -41 -36 -41 -5 0 -20 18 -35
40 -29 45 -41 51 -32 18z" id="node6" class="node"></path>
<path d="M209 2036 c-86 -23 -167 -102 -195 -189 -27 -86 0 -167 68 -204 49
-27 169 -24 230 6 157 76 216 259 113 350 -56 49 -126 61 -216 37z m52 -79
c47 -32 82 -99 83 -160 1 -42 -3 -52 -28 -74 -22 -18 -35 -23 -55 -18 -74 18
-137 143 -111 220 19 58 56 69 111 32z" id="node7" class="node"></path>
<path d="M2601 1924 l-32 -47 -37 34 c-20 19 -40 39 -45 44 -11 13 -4 -16 20
-77 l18 -48 -50 -51 c-43 -44 -46 -51 -25 -45 14 3 41 9 61 12 l37 6 23 -68
23 -69 8 60 c12 89 12 89 63 82 25 -4 45 -3 45 2 0 4 -18 22 -41 41 l-41 32 7
69 c4 38 5 69 3 69 -2 0 -19 -21 -37 -46z" id="node8" class="node"></path>
<path d="M2165 1541 c-113 -53 -160 -129 -160 -256 0 -92 19 -135 75 -172 137
-93 280 137 187 301 -15 27 -25 52 -22 55 13 13 77 3 102 -15 40 -29 90 -107
108 -167 35 -117 29 -309 -14 -431 -36 -104 -131 -231 -226 -303 -104 -79
-292 -153 -389 -153 -34 0 -33 -18 0 -26 70 -18 301 35 429 98 183 89 312 238
387 445 29 83 37 259 13 338 -38 133 -124 242 -227 290 -78 37 -182 35 -263
-4z m-36 -143 c11 -29 4 -46 -22 -60 -16 -8 -23 -7 -34 8 -17 23 -16 39 3 58
22 22 43 20 53 -6z" id="node9" class="node"></path>
<path d="M583 1164 c-16 -33 -20 -35 -50 -29 -37 7 -41 0 -16 -27 14 -16 14
-22 2 -46 -7 -15 -15 -31 -18 -37 -2 -5 9 -1 24 9 28 19 28 19 47 -8 27 -36
40 -33 33 7 -6 30 -3 34 27 49 l33 16 -34 8 c-33 7 -33 8 -28 50 2 24 3 44 1
44 -3 0 -12 -16 -21 -36z" id="node10" class="node"></path>
<path d="M2746 1048 c-35 -50 -9 -128 43 -128 37 0 61 28 61 71 0 47 -24 79
-60 79 -18 0 -34 -8 -44 -22z" id="node11" class="node"></path>
<path d="M2121 867 c-13 -38 -22 -43 -86 -50 l-30 -3 39 -17 c33 -14 37 -20
32 -39 -20 -66 -21 -65 11 -35 35 32 44 33 68 7 23 -26 27 -21 15 18 -8 29 -6
35 21 54 38 29 37 40 -4 33 -32 -6 -34 -5 -43 32 l-10 38 -13 -38z" id="node12" class="node"></path>
<path d="M2677 832 c-27 -30 -17 -101 17 -124 20 -14 53 -8 71 12 23 25 22 86
-1 111 -22 24 -66 24 -87 1z" id="node13" class="node"></path>
<path d="M1587 330 c-4 -14 -7 -42 -7 -62 0 -44 -12 -47 -79 -23 l-42 14 41
-47 c46 -55 47 -65 20 -110 -11 -18 -20 -35 -20 -37 0 -3 21 5 46 18 l46 22
40 -45 c33 -38 39 -41 33 -20 -22 86 -20 94 26 125 l44 30 -53 9 c-45 8 -53
13 -58 35 -3 14 -11 46 -18 71 -11 41 -13 43 -19 20z" id="node14" class="node"></path>
<path d="M946 315 c-24 -62 -25 -64 -63 -67 l-38 -3 28 -14 c34 -18 34 -36 2
-83 -39 -57 -29 -68 15 -18 l40 45 25 -30 25 -30 0 47 c0 41 4 49 33 70 l32
23 -40 5 c-37 5 -40 8 -46 40 -5 29 -7 32 -13 15z" id="node15" class="node"></path>
</g>
<g transform="translate(0.000000,300.000000) scale(0.100000,-0.100000)" fill="#A0A0A0" stroke="none">

<path d="M2020 1976 c-20 -26 -8 -61 22 -64 22 -3 29 2 34 22 11 44 -29 74
-56 42z" id="node17" class="node"></path>
<path d="M1646 1055 c-20 -21 -20 -39 0 -59 19 -20 38 -20 54 -1 16 19 9 45
-16 62 -19 12 -24 12 -38 -2z" id="node18" class="node"></path>
<path d="M587 1845 c-10 -58 56 -257 117 -354 56 -88 155 -175 224 -196 20 -6
22 -3 22 33 0 37 -4 42 -43 65 -24 14 -71 56 -105 92 -67 71 -132 193 -173
323 -13 39 -26 72 -30 72 -3 0 -9 -16 -12 -35z" id="node19" class="node"></path>
<path d="M172 1358 c-24 -24 -4 -88 28 -88 16 0 40 32 40 54 0 26 -17 46 -40
46 -9 0 -21 -5 -28 -12z" id="node20" class="node"></path>
<path d="M577 792 c-34 -37 -9 -90 36 -78 35 8 46 49 22 76 -22 25 -37 25 -58
2z" id="node21" class="node"></path>
<path d="M2076 1404 c-19 -19 -20 -35 -3 -58 11 -15 18 -16 34 -8 26 14 33 31
22 60 -10 26 -31 28 -53 6z" id="node22" class="node"></path>
<path d="M950 2814 c0 -43 107 -421 133 -469 10 -18 12 -16 29 23 11 23 24 80
30 126 10 71 9 94 -5 152 -20 78 -55 135 -106 170 -49 33 -81 32 -81 -2z" id="node23" class="node"></path>
<path d="M178 1970 c-23 -14 -41 -74 -33 -113 17 -74 66 -140 116 -152 20 -5
33 0 55 18 25 22 29 32 28 74 -1 61 -36 128 -83 160 -37 25 -57 28 -83 13z" id="node24" class="node"></path>
<path d="M1310 1633 c0 -7 102 -410 116 -462 8 -26 33 10 54 76 30 98 27 193
-9 268 -33 71 -52 89 -110 110 -50 17 -51 17 -51 8z" id="node25" class="node"></path>
<path d="M1164 756 c-7 -28 1 -46 20 -46 21 0 38 27 31 50 -9 28 -43 26 -51
-4z" id="node26" class="node"></path>
</g>
</svg>